<?xml version="1.0" encoding="UTF-8" standalone="no" ?>
<!DOCTYPE svg PUBLIC "-//W3C//DTD SVG 1.1//EN" "http://www.w3.org/Graphics/SVG/1.1/DTD/svg11.dtd">
<svg xmlns="http://www.w3.org/2000/svg" xmlns:xlink="http://www.w3.org/1999/xlink" version="1.1" width="1080" height="1080" viewBox="0 0 1080 1080" xml:space="preserve">
<desc>Created with Fabric.js 5.2.4</desc>
<defs>
</defs>
<g transform="matrix(1 0 0 1 540 540)" id="d87713a3-9748-4e54-916a-b7852255781b"  >
</g>
<g transform="matrix(1 0 0 1 540 540)" id="5f3bb946-27a2-4999-8a2e-936ddd9fccb1"  >
<rect style="stroke: none; stroke-width: 1; stroke-dasharray: none; stroke-linecap: butt; stroke-dashoffset: 0; stroke-linejoin: miter; stroke-miterlimit: 4; fill: rgb(255,255,255); fill-rule: nonzero; opacity: 1; visibility: hidden;" vector-effect="non-scaling-stroke"  x="-540" y="-540" rx="0" ry="0" width="1080" height="1080" />
</g>
<g transform="matrix(2.35 0 0 2.33 269.99 430.39)" clip-path="url(#CLIPPATH_8)"  >
<clipPath id="CLIPPATH_8" >
	<path transform="matrix(1 0 0 1 116.53 40.93) translate(-480, -270)" d="M 0 0 L 960 0 L 960 540 L 0 540 L 0 0 z" stroke-linecap="round" />
</clipPath>
<path style="stroke: none; stroke-width: 1; stroke-dasharray: none; stroke-linecap: square; stroke-dashoffset: 0; stroke-linejoin: miter; stroke-miterlimit: 10; fill: rgb(0,0,0); fill-opacity: 0; fill-rule: evenodd; opacity: 1;" vector-effect="non-scaling-stroke"  transform=" translate(-363.47, -227.07)" d="M 326.52756 213.11285 L 400.41733 241.018368" stroke-linecap="round" />
</g>
<g transform="matrix(2.35 0 0 2.33 269.99 430.39)" clip-path="url(#CLIPPATH_9)"  >
<clipPath id="CLIPPATH_9" >
	<path transform="matrix(1 0 0 1 116.53 40.93) translate(-480, -270)" d="M 0 0 L 960 0 L 960 540 L 0 540 L 0 0 z" stroke-linecap="round" />
</clipPath>
<path style="stroke: rgb(55,71,79); stroke-width: 8; stroke-dasharray: none; stroke-linecap: butt; stroke-dashoffset: 0; stroke-linejoin: round; stroke-miterlimit: 10; fill: none; fill-rule: evenodd; opacity: 1;" vector-effect="non-scaling-stroke"  transform=" translate(-363.47, -227.07)" d="M 326.52756 213.11285 L 400.41733 241.018368" stroke-linecap="round" />
</g>
<g transform="matrix(2.35 0 0 2.33 269.99 425.73)" clip-path="url(#CLIPPATH_10)"  >
<clipPath id="CLIPPATH_10" >
	<path transform="matrix(1 0 0 1 116.53 42.93) translate(-480, -270)" d="M 0 0 L 960 0 L 960 540 L 0 540 L 0 0 z" stroke-linecap="round" />
</clipPath>
<path style="stroke: none; stroke-width: 1; stroke-dasharray: none; stroke-linecap: square; stroke-dashoffset: 0; stroke-linejoin: miter; stroke-miterlimit: 10; fill: rgb(0,0,0); fill-opacity: 0; fill-rule: evenodd; opacity: 1;" vector-effect="non-scaling-stroke"  transform=" translate(-363.47, -227.07)" d="M 326.52756 213.11285 L 400.41733 241.018368" stroke-linecap="round" />
</g>
<g transform="matrix(2.35 0 0 2.33 269.99 425.73)" clip-path="url(#CLIPPATH_11)"  >
<clipPath id="CLIPPATH_11" >
	<path transform="matrix(1 0 0 1 116.53 42.93) translate(-480, -270)" d="M 0 0 L 960 0 L 960 540 L 0 540 L 0 0 z" stroke-linecap="round" />
</clipPath>
<path style="stroke: rgb(55,71,79); stroke-width: 8; stroke-dasharray: none; stroke-linecap: butt; stroke-dashoffset: 0; stroke-linejoin: round; stroke-miterlimit: 10; fill: none; fill-rule: evenodd; opacity: 1;" vector-effect="non-scaling-stroke"  transform=" translate(-363.47, -227.07)" d="M 326.52756 213.11285 L 400.41733 241.018368" stroke-linecap="round" />
</g>
<g transform="matrix(2.35 0 0 2.33 257.24 202.4)" clip-path="url(#CLIPPATH_12)"  >
<clipPath id="CLIPPATH_12" >
	<path transform="matrix(1 0 0 1 121.97 138.81) translate(-480, -270)" d="M 0 0 L 960 0 L 960 540 L 0 540 L 0 0 z" stroke-linecap="round" />
</clipPath>
<path style="stroke: none; stroke-width: 1; stroke-dasharray: none; stroke-linecap: square; stroke-dashoffset: 0; stroke-linejoin: miter; stroke-miterlimit: 10; fill: rgb(0,0,0); fill-opacity: 0; fill-rule: evenodd; opacity: 1;" vector-effect="non-scaling-stroke"  transform=" translate(-358.03, -129.19)" d="M 401.06653 96.4473 L 314.987795 161.92761000000002" stroke-linecap="round" />
</g>
<g transform="matrix(2.35 0 0 2.33 257.24 202.4)" clip-path="url(#CLIPPATH_13)"  >
<clipPath id="CLIPPATH_13" >
	<path transform="matrix(1 0 0 1 121.97 138.81) translate(-480, -270)" d="M 0 0 L 960 0 L 960 540 L 0 540 L 0 0 z" stroke-linecap="round" />
</clipPath>
<path style="stroke: rgb(55,71,79); stroke-width: 8; stroke-dasharray: none; stroke-linecap: butt; stroke-dashoffset: 0; stroke-linejoin: round; stroke-miterlimit: 10; fill: none; fill-rule: evenodd; opacity: 1;" vector-effect="non-scaling-stroke"  transform=" translate(-358.03, -129.19)" d="M 401.06653 96.4473 L 314.987795 161.92761000000002" stroke-linecap="round" />
</g>
<g transform="matrix(2.35 0 0 2.33 257.24 197.74)" clip-path="url(#CLIPPATH_14)"  >
<clipPath id="CLIPPATH_14" >
	<path transform="matrix(1 0 0 1 121.97 140.81) translate(-480, -270)" d="M 0 0 L 960 0 L 960 540 L 0 540 L 0 0 z" stroke-linecap="round" />
</clipPath>
<path style="stroke: none; stroke-width: 1; stroke-dasharray: none; stroke-linecap: square; stroke-dashoffset: 0; stroke-linejoin: miter; stroke-miterlimit: 10; fill: rgb(0,0,0); fill-opacity: 0; fill-rule: evenodd; opacity: 1;" vector-effect="non-scaling-stroke"  transform=" translate(-358.03, -129.19)" d="M 401.06653 96.4473 L 314.987795 161.92761000000002" stroke-linecap="round" />
</g>
<g transform="matrix(2.35 0 0 2.33 257.24 197.74)" clip-path="url(#CLIPPATH_15)"  >
<clipPath id="CLIPPATH_15" >
	<path transform="matrix(1 0 0 1 121.97 140.81) translate(-480, -270)" d="M 0 0 L 960 0 L 960 540 L 0 540 L 0 0 z" stroke-linecap="round" />
</clipPath>
<path style="stroke: rgb(55,71,79); stroke-width: 8; stroke-dasharray: none; stroke-linecap: butt; stroke-dashoffset: 0; stroke-linejoin: round; stroke-miterlimit: 10; fill: none; fill-rule: evenodd; opacity: 1;" vector-effect="non-scaling-stroke"  transform=" translate(-358.03, -129.19)" d="M 401.06653 96.4473 L 314.987795 161.92761000000002" stroke-linecap="round" />
</g>
<g transform="matrix(2.35 0 0 2.33 986 613.48)" clip-path="url(#CLIPPATH_16)"  >
<clipPath id="CLIPPATH_16" >
	<path transform="matrix(1 0 0 1 -189.02 -37.62) translate(-480, -270)" d="M 0 0 L 960 0 L 960 540 L 0 540 L 0 0 z" stroke-linecap="round" />
</clipPath>
<path style="stroke: none; stroke-width: 1; stroke-dasharray: none; stroke-linecap: square; stroke-dashoffset: 0; stroke-linejoin: miter; stroke-miterlimit: 10; fill: rgb(55,71,79); fill-rule: evenodd; opacity: 1;" vector-effect="non-scaling-stroke"  transform=" translate(-669.02, -305.62)" d="M 636.5833 311.21906 L 636.5833 311.21906 C 633.4869865000001 293.311101 645.501269 276.28382 663.417895 273.187566 L 663.417895 273.187566 C 672.021777 271.700658 680.8639400000001 273.6908924 687.999194 278.7204334 C 695.134448 283.7499439 699.978259 291.4067434 701.465197 300.00644339999997 L 701.465197 300.00644339999997 C 704.5614494 317.9144024 692.547167 334.9416834 674.630541 338.0379374 L 674.630541 338.0379374 C 656.713854 341.1342204 639.679551 329.12698739999996 636.583301 311.2190594 z" stroke-linecap="round" />
</g>
<g transform="matrix(2.35 0 0 2.33 986 608.82)" clip-path="url(#CLIPPATH_17)"  >
<clipPath id="CLIPPATH_17" >
	<path transform="matrix(1 0 0 1 -189.02 -35.62) translate(-480, -270)" d="M 0 0 L 960 0 L 960 540 L 0 540 L 0 0 z" stroke-linecap="round" />
</clipPath>
<path style="stroke: none; stroke-width: 1; stroke-dasharray: none; stroke-linecap: square; stroke-dashoffset: 0; stroke-linejoin: miter; stroke-miterlimit: 10; fill: rgb(55,71,79); fill-rule: evenodd; opacity: 1;" vector-effect="non-scaling-stroke"  transform=" translate(-669.02, -305.62)" d="M 636.5833 311.21906 L 636.5833 311.21906 C 633.4869865000001 293.311101 645.501269 276.28382 663.417895 273.187566 L 663.417895 273.187566 C 672.021777 271.700658 680.8639400000001 273.6908924 687.999194 278.7204334 C 695.134448 283.7499439 699.978259 291.4067434 701.465197 300.00644339999997 L 701.465197 300.00644339999997 C 704.5614494 317.9144024 692.547167 334.9416834 674.630541 338.0379374 L 674.630541 338.0379374 C 656.713854 341.1342204 639.679551 329.12698739999996 636.583301 311.2190594 z" stroke-linecap="round" />
</g>
<g transform="matrix(2.35 0 0 2.33 611.3 953.15)" clip-path="url(#CLIPPATH_18)"  >
<clipPath id="CLIPPATH_18" >
	<path transform="matrix(1 0 0 1 -29.13 -183.4) translate(-480, -270)" d="M 0 0 L 960 0 L 960 540 L 0 540 L 0 0 z" stroke-linecap="round" />
</clipPath>
<path style="stroke: none; stroke-width: 1; stroke-dasharray: none; stroke-linecap: square; stroke-dashoffset: 0; stroke-linejoin: miter; stroke-miterlimit: 10; fill: rgb(55,71,79); fill-rule: evenodd; opacity: 1;" vector-effect="non-scaling-stroke"  transform=" translate(-509.13, -451.4)" d="M 476.68848 457.00726 L 476.68848 457.00726 C 473.5922276 439.099332 485.60647900000004 422.07205 503.523136 418.97576599999996 L 503.523136 418.97576599999996 C 512.127018 417.48888859999994 520.96912 419.47912292999996 528.104374 424.50863339999995 C 535.239628 429.53814389999997 540.0835 437.1949733999999 541.570377 445.79467439999996 L 541.570377 445.79467439999996 C 544.6666294 463.70260239999993 532.652347 480.72988439999995 514.735721 483.8261684 L 514.735721 483.8261684 C 496.819095 486.9224208 479.784761 474.9151884 476.688481 457.00725939999995 z" stroke-linecap="round" />
</g>
<g transform="matrix(2.35 0 0 2.33 611.3 948.48)" clip-path="url(#CLIPPATH_19)"  >
<clipPath id="CLIPPATH_19" >
	<path transform="matrix(1 0 0 1 -29.13 -181.4) translate(-480, -270)" d="M 0 0 L 960 0 L 960 540 L 0 540 L 0 0 z" stroke-linecap="round" />
</clipPath>
<path style="stroke: none; stroke-width: 1; stroke-dasharray: none; stroke-linecap: square; stroke-dashoffset: 0; stroke-linejoin: miter; stroke-miterlimit: 10; fill: rgb(55,71,79); fill-rule: evenodd; opacity: 1;" vector-effect="non-scaling-stroke"  transform=" translate(-509.13, -451.4)" d="M 476.68848 457.00726 L 476.68848 457.00726 C 473.5922276 439.099332 485.60647900000004 422.07205 503.523136 418.97576599999996 L 503.523136 418.97576599999996 C 512.127018 417.48888859999994 520.96912 419.47912292999996 528.104374 424.50863339999995 C 535.239628 429.53814389999997 540.0835 437.1949733999999 541.570377 445.79467439999996 L 541.570377 445.79467439999996 C 544.6666294 463.70260239999993 532.652347 480.72988439999995 514.735721 483.8261684 L 514.735721 483.8261684 C 496.819095 486.9224208 479.784761 474.9151884 476.688481 457.00725939999995 z" stroke-linecap="round" />
</g>
<g transform="matrix(2.35 0 0 2.33 351 884.68)" clip-path="url(#CLIPPATH_20)"  >
<clipPath id="CLIPPATH_20" >
	<path transform="matrix(1 0 0 1 81.97 -154.03) translate(-480, -270)" d="M 0 0 L 960 0 L 960 540 L 0 540 L 0 0 z" stroke-linecap="round" />
</clipPath>
<path style="stroke: none; stroke-width: 1; stroke-dasharray: none; stroke-linecap: square; stroke-dashoffset: 0; stroke-linejoin: miter; stroke-miterlimit: 10; fill: rgb(0,0,0); fill-opacity: 0; fill-rule: evenodd; opacity: 1;" vector-effect="non-scaling-stroke"  transform=" translate(-398.03, -422.03)" d="M 344.1236 402.2222 L 451.93460500000003 441.84427" stroke-linecap="round" />
</g>
<g transform="matrix(2.35 0 0 2.33 351 884.68)" clip-path="url(#CLIPPATH_21)"  >
<clipPath id="CLIPPATH_21" >
	<path transform="matrix(1 0 0 1 81.97 -154.03) translate(-480, -270)" d="M 0 0 L 960 0 L 960 540 L 0 540 L 0 0 z" stroke-linecap="round" />
</clipPath>
<path style="stroke: rgb(55,71,79); stroke-width: 8; stroke-dasharray: none; stroke-linecap: butt; stroke-dashoffset: 0; stroke-linejoin: round; stroke-miterlimit: 10; fill: none; fill-rule: evenodd; opacity: 1;" vector-effect="non-scaling-stroke"  transform=" translate(-398.03, -422.03)" d="M 344.1236 402.2222 L 451.93460500000003 441.84427" stroke-linecap="round" />
</g>
<g transform="matrix(2.35 0 0 2.33 351 880.03)" clip-path="url(#CLIPPATH_22)"  >
<clipPath id="CLIPPATH_22" >
	<path transform="matrix(1 0 0 1 81.97 -152.03) translate(-480, -270)" d="M 0 0 L 960 0 L 960 540 L 0 540 L 0 0 z" stroke-linecap="round" />
</clipPath>
<path style="stroke: none; stroke-width: 1; stroke-dasharray: none; stroke-linecap: square; stroke-dashoffset: 0; stroke-linejoin: miter; stroke-miterlimit: 10; fill: rgb(0,0,0); fill-opacity: 0; fill-rule: evenodd; opacity: 1;" vector-effect="non-scaling-stroke"  transform=" translate(-398.03, -422.03)" d="M 344.1236 402.2222 L 451.93460500000003 441.84427" stroke-linecap="round" />
</g>
<g transform="matrix(2.35 0 0 2.33 351 880.03)" clip-path="url(#CLIPPATH_23)"  >
<clipPath id="CLIPPATH_23" >
	<path transform="matrix(1 0 0 1 81.97 -152.03) translate(-480, -270)" d="M 0 0 L 960 0 L 960 540 L 0 540 L 0 0 z" stroke-linecap="round" />
</clipPath>
<path style="stroke: rgb(55,71,79); stroke-width: 8; stroke-dasharray: none; stroke-linecap: butt; stroke-dashoffset: 0; stroke-linejoin: round; stroke-miterlimit: 10; fill: none; fill-rule: evenodd; opacity: 1;" vector-effect="non-scaling-stroke"  transform=" translate(-398.03, -422.03)" d="M 344.1236 402.2222 L 451.93460500000003 441.84427" stroke-linecap="round" />
</g>
<g transform="matrix(2.35 0 0 2.33 167.54 754.14)" clip-path="url(#CLIPPATH_24)"  >
<clipPath id="CLIPPATH_24" >
	<path transform="matrix(1 0 0 1 160.24 -97.99) translate(-480, -270)" d="M 0 0 L 960 0 L 960 540 L 0 540 L 0 0 z" stroke-linecap="round" />
</clipPath>
<path style="stroke: none; stroke-width: 1; stroke-dasharray: none; stroke-linecap: square; stroke-dashoffset: 0; stroke-linejoin: miter; stroke-miterlimit: 10; fill: rgb(55,71,79); fill-rule: evenodd; opacity: 1;" vector-effect="non-scaling-stroke"  transform=" translate(-319.76, -365.99)" d="M 287.31888 371.59598 L 287.31888 371.59598 C 284.22262759999995 353.68805199999997 296.23690999999997 336.66077 314.153536 333.564486 L 314.153536 333.564486 C 322.757418 332.07760859999996 331.59954999999997 334.06784293 338.734804 339.0973534 C 345.87002739999997 344.12689439999997 350.71389899999997 351.78369339999995 352.200777 360.3833944 L 352.200777 360.3833944 C 355.29706000000004 378.2913224 343.282778 395.31860439999997 325.366121 398.4148884 L 325.366121 398.4148884 C 307.449495 401.5111714 290.415161 389.5039384 287.31888100000003 371.5959794 z" stroke-linecap="round" />
</g>
<g transform="matrix(2.35 0 0 2.33 167.54 749.48)" clip-path="url(#CLIPPATH_25)"  >
<clipPath id="CLIPPATH_25" >
	<path transform="matrix(1 0 0 1 160.24 -95.99) translate(-480, -270)" d="M 0 0 L 960 0 L 960 540 L 0 540 L 0 0 z" stroke-linecap="round" />
</clipPath>
<path style="stroke: none; stroke-width: 1; stroke-dasharray: none; stroke-linecap: square; stroke-dashoffset: 0; stroke-linejoin: miter; stroke-miterlimit: 10; fill: rgb(55,71,79); fill-rule: evenodd; opacity: 1;" vector-effect="non-scaling-stroke"  transform=" translate(-319.76, -365.99)" d="M 287.31888 371.59598 L 287.31888 371.59598 C 284.22262759999995 353.68805199999997 296.23690999999997 336.66077 314.153536 333.564486 L 314.153536 333.564486 C 322.757418 332.07760859999996 331.59954999999997 334.06784293 338.734804 339.0973534 C 345.87002739999997 344.12689439999997 350.71389899999997 351.78369339999995 352.200777 360.3833944 L 352.200777 360.3833944 C 355.29706000000004 378.2913224 343.282778 395.31860439999997 325.366121 398.4148884 L 325.366121 398.4148884 C 307.449495 401.5111714 290.415161 389.5039384 287.31888100000003 371.5959794 z" stroke-linecap="round" />
</g>
<g transform="matrix(2.35 0 0 2.33 708.18 108.85)" clip-path="url(#CLIPPATH_26)"  >
<clipPath id="CLIPPATH_26" >
	<path transform="matrix(1 0 0 1 -70.44 178.93) translate(-480, -270)" d="M 0 0 L 960 0 L 960 540 L 0 540 L 0 0 z" stroke-linecap="round" />
</clipPath>
<path style="stroke: none; stroke-width: 1; stroke-dasharray: none; stroke-linecap: square; stroke-dashoffset: 0; stroke-linejoin: miter; stroke-miterlimit: 10; fill: rgb(0,0,0); fill-opacity: 0; fill-rule: evenodd; opacity: 1;" vector-effect="non-scaling-stroke"  transform=" translate(-550.44, -89.07)" d="M 609.1351 97.36427 L 491.74926999999997 80.765843" stroke-linecap="round" />
</g>
<g transform="matrix(2.35 0 0 2.33 708.18 108.85)" clip-path="url(#CLIPPATH_27)"  >
<clipPath id="CLIPPATH_27" >
	<path transform="matrix(1 0 0 1 -70.44 178.93) translate(-480, -270)" d="M 0 0 L 960 0 L 960 540 L 0 540 L 0 0 z" stroke-linecap="round" />
</clipPath>
<path style="stroke: rgb(55,71,79); stroke-width: 8; stroke-dasharray: none; stroke-linecap: butt; stroke-dashoffset: 0; stroke-linejoin: round; stroke-miterlimit: 10; fill: none; fill-rule: evenodd; opacity: 1;" vector-effect="non-scaling-stroke"  transform=" translate(-550.44, -89.07)" d="M 609.1351 97.36427 L 491.74926999999997 80.765843" stroke-linecap="round" />
</g>
<g transform="matrix(2.35 0 0 2.33 708.18 104.2)" clip-path="url(#CLIPPATH_28)"  >
<clipPath id="CLIPPATH_28" >
	<path transform="matrix(1 0 0 1 -70.44 180.93) translate(-480, -270)" d="M 0 0 L 960 0 L 960 540 L 0 540 L 0 0 z" stroke-linecap="round" />
</clipPath>
<path style="stroke: none; stroke-width: 1; stroke-dasharray: none; stroke-linecap: square; stroke-dashoffset: 0; stroke-linejoin: miter; stroke-miterlimit: 10; fill: rgb(0,0,0); fill-opacity: 0; fill-rule: evenodd; opacity: 1;" vector-effect="non-scaling-stroke"  transform=" translate(-550.44, -89.07)" d="M 609.1351 97.36427 L 491.74926999999997 80.765843" stroke-linecap="round" />
</g>
<g transform="matrix(2.35 0 0 2.33 708.18 104.2)" clip-path="url(#CLIPPATH_29)"  >
<clipPath id="CLIPPATH_29" >
	<path transform="matrix(1 0 0 1 -70.44 180.93) translate(-480, -270)" d="M 0 0 L 960 0 L 960 540 L 0 540 L 0 0 z" stroke-linecap="round" />
</clipPath>
<path style="stroke: rgb(55,71,79); stroke-width: 8; stroke-dasharray: none; stroke-linecap: butt; stroke-dashoffset: 0; stroke-linejoin: round; stroke-miterlimit: 10; fill: none; fill-rule: evenodd; opacity: 1;" vector-effect="non-scaling-stroke"  transform=" translate(-550.44, -89.07)" d="M 609.1351 97.36427 L 491.74926999999997 80.765843" stroke-linecap="round" />
</g>
<g transform="matrix(2.35 0 0 2.33 918.54 225.42)" clip-path="url(#CLIPPATH_30)"  >
<clipPath id="CLIPPATH_30" >
	<path transform="matrix(1 0 0 1 -160.23 128.93) translate(-480, -270)" d="M 0 0 L 960 0 L 960 540 L 0 540 L 0 0 z" stroke-linecap="round" />
</clipPath>
<path style="stroke: none; stroke-width: 1; stroke-dasharray: none; stroke-linecap: square; stroke-dashoffset: 0; stroke-linejoin: miter; stroke-miterlimit: 10; fill: rgb(55,71,79); fill-rule: evenodd; opacity: 1;" vector-effect="non-scaling-stroke"  transform=" translate(-640.23, -139.07)" d="M 607.79224 144.67062 L 607.79224 144.67062 C 604.6959876 126.76267600000001 616.71027 109.73540000000001 634.626896 106.639126 L 634.626896 106.639126 C 643.230778 105.15224090000001 652.072941 107.1424753 659.208134 112.1719934 C 666.343388 117.2015114 671.1872599999999 124.85832640000001 672.674137 133.4580194 L 672.674137 133.4580194 C 675.7703894 151.3659634 663.756168 168.3932454 645.839481 171.48951340000002 L 645.839481 171.48951340000002 C 627.922855 174.58579640000002 610.888553 162.5785634 607.792241 144.67062040000002 z" stroke-linecap="round" />
</g>
<g transform="matrix(2.35 0 0 2.33 918.54 220.75)" clip-path="url(#CLIPPATH_31)"  >
<clipPath id="CLIPPATH_31" >
	<path transform="matrix(1 0 0 1 -160.23 130.93) translate(-480, -270)" d="M 0 0 L 960 0 L 960 540 L 0 540 L 0 0 z" stroke-linecap="round" />
</clipPath>
<path style="stroke: none; stroke-width: 1; stroke-dasharray: none; stroke-linecap: square; stroke-dashoffset: 0; stroke-linejoin: miter; stroke-miterlimit: 10; fill: rgb(55,71,79); fill-rule: evenodd; opacity: 1;" vector-effect="non-scaling-stroke"  transform=" translate(-640.23, -139.07)" d="M 607.79224 144.67062 L 607.79224 144.67062 C 604.6959876 126.76267600000001 616.71027 109.73540000000001 634.626896 106.639126 L 634.626896 106.639126 C 643.230778 105.15224090000001 652.072941 107.1424753 659.208134 112.1719934 C 666.343388 117.2015114 671.1872599999999 124.85832640000001 672.674137 133.4580194 L 672.674137 133.4580194 C 675.7703894 151.3659634 663.756168 168.3932454 645.839481 171.48951340000002 L 645.839481 171.48951340000002 C 627.922855 174.58579640000002 610.888553 162.5785634 607.792241 144.67062040000002 z" stroke-linecap="round" />
</g>
<g transform="matrix(2.35 0 0 2.33 100.09 366.17)" clip-path="url(#CLIPPATH_32)"  >
<clipPath id="CLIPPATH_32" >
	<path transform="matrix(1 0 0 1 189.02 68.52) translate(-480, -270)" d="M 0 0 L 960 0 L 960 540 L 0 540 L 0 0 z" stroke-linecap="round" />
</clipPath>
<path style="stroke: none; stroke-width: 1; stroke-dasharray: none; stroke-linecap: square; stroke-dashoffset: 0; stroke-linejoin: miter; stroke-miterlimit: 10; fill: rgb(55,71,79); fill-rule: evenodd; opacity: 1;" vector-effect="non-scaling-stroke"  transform=" translate(-290.98, -199.48)" d="M 258.53427 205.08464 L 258.53427 205.08464 C 255.437987 187.176696 267.452269 170.149414 285.368895 167.053146 L 285.368895 167.053146 C 293.972777 165.5662533 302.814909 167.5564877 309.95016300000003 172.58601339999998 C 317.085417 177.61552389999997 321.929258 185.2723384 323.41613600000005 193.87203939999998 L 323.41613600000005 193.87203939999998 C 326.5124190000001 211.7799834 314.49813700000004 228.80726539999998 296.58151100000003 231.9035334 L 296.58151100000003 231.9035334 C 278.66485500000005 234.99980109999998 261.63052100000004 222.9925834 258.53427100000005 205.08464039999998 z" stroke-linecap="round" />
</g>
<g transform="matrix(2.35 0 0 2.33 100.09 361.51)" clip-path="url(#CLIPPATH_33)"  >
<clipPath id="CLIPPATH_33" >
	<path transform="matrix(1 0 0 1 189.02 70.52) translate(-480, -270)" d="M 0 0 L 960 0 L 960 540 L 0 540 L 0 0 z" stroke-linecap="round" />
</clipPath>
<path style="stroke: none; stroke-width: 1; stroke-dasharray: none; stroke-linecap: square; stroke-dashoffset: 0; stroke-linejoin: miter; stroke-miterlimit: 10; fill: rgb(55,71,79); fill-rule: evenodd; opacity: 1;" vector-effect="non-scaling-stroke"  transform=" translate(-290.98, -199.48)" d="M 258.53427 205.08464 L 258.53427 205.08464 C 255.437987 187.176696 267.452269 170.149414 285.368895 167.053146 L 285.368895 167.053146 C 293.972777 165.5662533 302.814909 167.5564877 309.95016300000003 172.58601339999998 C 317.085417 177.61552389999997 321.929258 185.2723384 323.41613600000005 193.87203939999998 L 323.41613600000005 193.87203939999998 C 326.5124190000001 211.7799834 314.49813700000004 228.80726539999998 296.58151100000003 231.9035334 L 296.58151100000003 231.9035334 C 278.66485500000005 234.99980109999998 261.63052100000004 222.9925834 258.53427100000005 205.08464039999998 z" stroke-linecap="round" />
</g>
<g transform="matrix(2.35 0 0 2.33 464.34 107.83)" clip-path="url(#CLIPPATH_34)"  >
<clipPath id="CLIPPATH_34" >
	<path transform="matrix(1 0 0 1 33.59 179.4) translate(-480, -270)" d="M 0 0 L 960 0 L 960 540 L 0 540 L 0 0 z" stroke-linecap="round" />
</clipPath>
<path style="stroke: none; stroke-width: 1; stroke-dasharray: none; stroke-linecap: square; stroke-dashoffset: 0; stroke-linejoin: miter; stroke-miterlimit: 10; fill: rgb(55,71,79); fill-rule: evenodd; opacity: 1;" vector-effect="non-scaling-stroke"  transform=" translate(-446.41, -88.6)" d="M 413.97153 94.206566 L 413.97153 94.206566 C 410.87527759999995 76.298622 422.88955999999996 59.271342999999995 440.80618599999997 56.17507199999999 L 440.80618599999997 56.17507199999999 C 449.41006799999997 54.68818689999999 458.25219999999996 56.6784213 465.387454 61.707939399999994 C 472.52267739999996 66.7374574 477.36654899999996 74.39427239999999 478.853427 82.9939654 L 478.853427 82.9939654 C 481.94971000000004 100.9019094 469.935428 117.9291914 452.018771 121.0254654 L 452.018771 121.0254654 C 434.102145 124.1217331 417.067811 112.1145084 413.971531 94.2065644 z" stroke-linecap="round" />
</g>
<g transform="matrix(2.35 0 0 2.33 464.34 103.16)" clip-path="url(#CLIPPATH_35)"  >
<clipPath id="CLIPPATH_35" >
	<path transform="matrix(1 0 0 1 33.59 181.4) translate(-480, -270)" d="M 0 0 L 960 0 L 960 540 L 0 540 L 0 0 z" stroke-linecap="round" />
</clipPath>
<path style="stroke: none; stroke-width: 1; stroke-dasharray: none; stroke-linecap: square; stroke-dashoffset: 0; stroke-linejoin: miter; stroke-miterlimit: 10; fill: rgb(55,71,79); fill-rule: evenodd; opacity: 1;" vector-effect="non-scaling-stroke"  transform=" translate(-446.41, -88.6)" d="M 413.97153 94.206566 L 413.97153 94.206566 C 410.87527759999995 76.298622 422.88955999999996 59.271342999999995 440.80618599999997 56.17507199999999 L 440.80618599999997 56.17507199999999 C 449.41006799999997 54.68818689999999 458.25219999999996 56.6784213 465.387454 61.707939399999994 C 472.52267739999996 66.7374574 477.36654899999996 74.39427239999999 478.853427 82.9939654 L 478.853427 82.9939654 C 481.94971000000004 100.9019094 469.935428 117.9291914 452.018771 121.0254654 L 452.018771 121.0254654 C 434.102145 124.1217331 417.067811 112.1145084 413.971531 94.2065644 z" stroke-linecap="round" />
</g>
<g transform="matrix(2.35 0 0 2.33 840.65 815.25)" clip-path="url(#CLIPPATH_36)"  >
<clipPath id="CLIPPATH_36" >
	<path transform="matrix(1 0 0 1 -126.98 -124.21) translate(-480, -270)" d="M 0 0 L 960 0 L 960 540 L 0 540 L 0 0 z" stroke-linecap="round" />
</clipPath>
<path style="stroke: none; stroke-width: 1; stroke-dasharray: none; stroke-linecap: square; stroke-dashoffset: 0; stroke-linejoin: miter; stroke-miterlimit: 10; fill: rgb(0,0,0); fill-opacity: 0; fill-rule: evenodd; opacity: 1;" vector-effect="non-scaling-stroke"  transform=" translate(-606.98, -392.21)" d="M 553.3411 436.91815 L 660.616735 347.50082000000003" stroke-linecap="round" />
</g>
<g transform="matrix(2.35 0 0 2.33 840.65 815.25)" clip-path="url(#CLIPPATH_37)"  >
<clipPath id="CLIPPATH_37" >
	<path transform="matrix(1 0 0 1 -126.98 -124.21) translate(-480, -270)" d="M 0 0 L 960 0 L 960 540 L 0 540 L 0 0 z" stroke-linecap="round" />
</clipPath>
<path style="stroke: rgb(55,71,79); stroke-width: 8; stroke-dasharray: none; stroke-linecap: butt; stroke-dashoffset: 0; stroke-linejoin: round; stroke-miterlimit: 10; fill: none; fill-rule: evenodd; opacity: 1;" vector-effect="non-scaling-stroke"  transform=" translate(-606.98, -392.21)" d="M 553.3411 436.91815 L 660.616735 347.50082000000003" stroke-linecap="round" />
</g>
<g transform="matrix(2.35 0 0 2.33 840.65 810.6)" clip-path="url(#CLIPPATH_38)"  >
<clipPath id="CLIPPATH_38" >
	<path transform="matrix(1 0 0 1 -126.98 -122.21) translate(-480, -270)" d="M 0 0 L 960 0 L 960 540 L 0 540 L 0 0 z" stroke-linecap="round" />
</clipPath>
<path style="stroke: none; stroke-width: 1; stroke-dasharray: none; stroke-linecap: square; stroke-dashoffset: 0; stroke-linejoin: miter; stroke-miterlimit: 10; fill: rgb(0,0,0); fill-opacity: 0; fill-rule: evenodd; opacity: 1;" vector-effect="non-scaling-stroke"  transform=" translate(-606.98, -392.21)" d="M 553.3411 436.91815 L 660.616735 347.50082000000003" stroke-linecap="round" />
</g>
<g transform="matrix(2.35 0 0 2.33 840.65 810.6)" clip-path="url(#CLIPPATH_39)"  >
<clipPath id="CLIPPATH_39" >
	<path transform="matrix(1 0 0 1 -126.98 -122.21) translate(-480, -270)" d="M 0 0 L 960 0 L 960 540 L 0 540 L 0 0 z" stroke-linecap="round" />
</clipPath>
<path style="stroke: rgb(55,71,79); stroke-width: 8; stroke-dasharray: none; stroke-linecap: butt; stroke-dashoffset: 0; stroke-linejoin: round; stroke-miterlimit: 10; fill: none; fill-rule: evenodd; opacity: 1;" vector-effect="non-scaling-stroke"  transform=" translate(-606.98, -392.21)" d="M 553.3411 436.91815 L 660.616735 347.50082000000003" stroke-linecap="round" />
</g>
<g transform="matrix(2.35 0 0 2.33 750.71 326.65)" clip-path="url(#CLIPPATH_40)"  >
<clipPath id="CLIPPATH_40" >
	<path transform="matrix(1 0 0 1 -88.62 85.47) translate(-480, -270)" d="M 0 0 L 960 0 L 960 540 L 0 540 L 0 0 z" stroke-linecap="round" />
</clipPath>
<path style="stroke: none; stroke-width: 1; stroke-dasharray: none; stroke-linecap: square; stroke-dashoffset: 0; stroke-linejoin: miter; stroke-miterlimit: 10; fill: rgb(0,0,0); fill-opacity: 0; fill-rule: evenodd; opacity: 1;" vector-effect="non-scaling-stroke"  transform=" translate(-568.62, -182.53)" d="M 599.80585 158.75087 L 537.443667 206.30991999999998" stroke-linecap="round" />
</g>
<g transform="matrix(2.35 0 0 2.33 750.71 326.65)" clip-path="url(#CLIPPATH_41)"  >
<clipPath id="CLIPPATH_41" >
	<path transform="matrix(1 0 0 1 -88.62 85.47) translate(-480, -270)" d="M 0 0 L 960 0 L 960 540 L 0 540 L 0 0 z" stroke-linecap="round" />
</clipPath>
<path style="stroke: rgb(55,71,79); stroke-width: 8; stroke-dasharray: none; stroke-linecap: butt; stroke-dashoffset: 0; stroke-linejoin: round; stroke-miterlimit: 10; fill: none; fill-rule: evenodd; opacity: 1;" vector-effect="non-scaling-stroke"  transform=" translate(-568.62, -182.53)" d="M 599.80585 158.75087 L 537.443667 206.30991999999998" stroke-linecap="round" />
</g>
<g transform="matrix(2.35 0 0 2.33 750.71 322)" clip-path="url(#CLIPPATH_42)"  >
<clipPath id="CLIPPATH_42" >
	<path transform="matrix(1 0 0 1 -88.62 87.47) translate(-480, -270)" d="M 0 0 L 960 0 L 960 540 L 0 540 L 0 0 z" stroke-linecap="round" />
</clipPath>
<path style="stroke: none; stroke-width: 1; stroke-dasharray: none; stroke-linecap: square; stroke-dashoffset: 0; stroke-linejoin: miter; stroke-miterlimit: 10; fill: rgb(0,0,0); fill-opacity: 0; fill-rule: evenodd; opacity: 1;" vector-effect="non-scaling-stroke"  transform=" translate(-568.62, -182.53)" d="M 599.80585 158.75087 L 537.443667 206.30991999999998" stroke-linecap="round" />
</g>
<g transform="matrix(2.35 0 0 2.33 750.71 322)" clip-path="url(#CLIPPATH_43)"  >
<clipPath id="CLIPPATH_43" >
	<path transform="matrix(1 0 0 1 -88.62 87.47) translate(-480, -270)" d="M 0 0 L 960 0 L 960 540 L 0 540 L 0 0 z" stroke-linecap="round" />
</clipPath>
<path style="stroke: rgb(55,71,79); stroke-width: 8; stroke-dasharray: none; stroke-linecap: butt; stroke-dashoffset: 0; stroke-linejoin: round; stroke-miterlimit: 10; fill: none; fill-rule: evenodd; opacity: 1;" vector-effect="non-scaling-stroke"  transform=" translate(-568.62, -182.53)" d="M 599.80585 158.75087 L 537.443667 206.30991999999998" stroke-linecap="round" />
</g>
<g transform="matrix(2.35 0 0 2.33 321.33 663.05)" clip-path="url(#CLIPPATH_44)"  >
<clipPath id="CLIPPATH_44" >
	<path transform="matrix(1 0 0 1 94.61 -58.91) translate(-480, -270)" d="M 0 0 L 960 0 L 960 540 L 0 540 L 0 0 z" stroke-linecap="round" />
</clipPath>
<path style="stroke: none; stroke-width: 1; stroke-dasharray: none; stroke-linecap: square; stroke-dashoffset: 0; stroke-linejoin: miter; stroke-miterlimit: 10; fill: rgb(0,0,0); fill-opacity: 0; fill-rule: evenodd; opacity: 1;" vector-effect="non-scaling-stroke"  transform=" translate(-385.39, -326.91)" d="M 415.18896 303.96326 L 355.598414 349.85303" stroke-linecap="round" />
</g>
<g transform="matrix(2.35 0 0 2.33 321.33 663.05)" clip-path="url(#CLIPPATH_45)"  >
<clipPath id="CLIPPATH_45" >
	<path transform="matrix(1 0 0 1 94.61 -58.91) translate(-480, -270)" d="M 0 0 L 960 0 L 960 540 L 0 540 L 0 0 z" stroke-linecap="round" />
</clipPath>
<path style="stroke: rgb(55,71,79); stroke-width: 8; stroke-dasharray: none; stroke-linecap: butt; stroke-dashoffset: 0; stroke-linejoin: round; stroke-miterlimit: 10; fill: none; fill-rule: evenodd; opacity: 1;" vector-effect="non-scaling-stroke"  transform=" translate(-385.39, -326.91)" d="M 415.18896 303.96326 L 355.598414 349.85303" stroke-linecap="round" />
</g>
<g transform="matrix(2.35 0 0 2.33 321.33 658.38)" clip-path="url(#CLIPPATH_46)"  >
<clipPath id="CLIPPATH_46" >
	<path transform="matrix(1 0 0 1 94.61 -56.91) translate(-480, -270)" d="M 0 0 L 960 0 L 960 540 L 0 540 L 0 0 z" stroke-linecap="round" />
</clipPath>
<path style="stroke: none; stroke-width: 1; stroke-dasharray: none; stroke-linecap: square; stroke-dashoffset: 0; stroke-linejoin: miter; stroke-miterlimit: 10; fill: rgb(0,0,0); fill-opacity: 0; fill-rule: evenodd; opacity: 1;" vector-effect="non-scaling-stroke"  transform=" translate(-385.39, -326.91)" d="M 415.18896 303.96326 L 355.598414 349.85303" stroke-linecap="round" />
</g>
<g transform="matrix(2.35 0 0 2.33 321.33 658.38)" clip-path="url(#CLIPPATH_47)"  >
<clipPath id="CLIPPATH_47" >
	<path transform="matrix(1 0 0 1 94.61 -56.91) translate(-480, -270)" d="M 0 0 L 960 0 L 960 540 L 0 540 L 0 0 z" stroke-linecap="round" />
</clipPath>
<path style="stroke: rgb(55,71,79); stroke-width: 8; stroke-dasharray: none; stroke-linecap: butt; stroke-dashoffset: 0; stroke-linejoin: round; stroke-miterlimit: 10; fill: none; fill-rule: evenodd; opacity: 1;" vector-effect="non-scaling-stroke"  transform=" translate(-385.39, -326.91)" d="M 415.18896 303.96326 L 355.598414 349.85303" stroke-linecap="round" />
</g>
<g transform="matrix(2.35 0 0 2.33 800.76 580.6)" clip-path="url(#CLIPPATH_48)"  >
<clipPath id="CLIPPATH_48" >
	<path transform="matrix(1 0 0 1 -109.97 -23.53) translate(-480, -270)" d="M 0 0 L 960 0 L 960 540 L 0 540 L 0 0 z" stroke-linecap="round" />
</clipPath>
<path style="stroke: none; stroke-width: 1; stroke-dasharray: none; stroke-linecap: square; stroke-dashoffset: 0; stroke-linejoin: miter; stroke-miterlimit: 10; fill: rgb(0,0,0); fill-opacity: 0; fill-rule: evenodd; opacity: 1;" vector-effect="non-scaling-stroke"  transform=" translate(-589.97, -291.53)" d="M 551.03674 277.6404 L 628.89502 305.419941" stroke-linecap="round" />
</g>
<g transform="matrix(2.35 0 0 2.33 800.76 580.6)" clip-path="url(#CLIPPATH_49)"  >
<clipPath id="CLIPPATH_49" >
	<path transform="matrix(1 0 0 1 -109.97 -23.53) translate(-480, -270)" d="M 0 0 L 960 0 L 960 540 L 0 540 L 0 0 z" stroke-linecap="round" />
</clipPath>
<path style="stroke: rgb(55,71,79); stroke-width: 8; stroke-dasharray: none; stroke-linecap: butt; stroke-dashoffset: 0; stroke-linejoin: round; stroke-miterlimit: 10; fill: none; fill-rule: evenodd; opacity: 1;" vector-effect="non-scaling-stroke"  transform=" translate(-589.97, -291.53)" d="M 551.03674 277.6404 L 628.89502 305.419941" stroke-linecap="round" />
</g>
<g transform="matrix(2.35 0 0 2.33 800.76 575.94)" clip-path="url(#CLIPPATH_50)"  >
<clipPath id="CLIPPATH_50" >
	<path transform="matrix(1 0 0 1 -109.97 -21.53) translate(-480, -270)" d="M 0 0 L 960 0 L 960 540 L 0 540 L 0 0 z" stroke-linecap="round" />
</clipPath>
<path style="stroke: none; stroke-width: 1; stroke-dasharray: none; stroke-linecap: square; stroke-dashoffset: 0; stroke-linejoin: miter; stroke-miterlimit: 10; fill: rgb(0,0,0); fill-opacity: 0; fill-rule: evenodd; opacity: 1;" vector-effect="non-scaling-stroke"  transform=" translate(-589.97, -291.53)" d="M 551.03674 277.6404 L 628.89502 305.419941" stroke-linecap="round" />
</g>
<g transform="matrix(2.35 0 0 2.33 800.76 575.94)" clip-path="url(#CLIPPATH_51)"  >
<clipPath id="CLIPPATH_51" >
	<path transform="matrix(1 0 0 1 -109.97 -21.53) translate(-480, -270)" d="M 0 0 L 960 0 L 960 540 L 0 540 L 0 0 z" stroke-linecap="round" />
</clipPath>
<path style="stroke: rgb(55,71,79); stroke-width: 8; stroke-dasharray: none; stroke-linecap: butt; stroke-dashoffset: 0; stroke-linejoin: round; stroke-miterlimit: 10; fill: none; fill-rule: evenodd; opacity: 1;" vector-effect="non-scaling-stroke"  transform=" translate(-589.97, -291.53)" d="M 551.03674 277.6404 L 628.89502 305.419941" stroke-linecap="round" />
</g>
<g transform="matrix(2.35 0 0 2.33 491.66 264.93)" clip-path="url(#CLIPPATH_52)"  >
<clipPath id="CLIPPATH_52" >
	<path transform="matrix(1 0 0 1 21.89 111.96) translate(-480, -270)" d="M 0 0 L 960 0 L 960 540 L 0 540 L 0 0 z" stroke-linecap="round" />
</clipPath>
<path style="stroke: none; stroke-width: 1; stroke-dasharray: none; stroke-linecap: square; stroke-dashoffset: 0; stroke-linejoin: miter; stroke-miterlimit: 10; fill: rgb(0,0,0); fill-opacity: 0; fill-rule: evenodd; opacity: 1;" vector-effect="non-scaling-stroke"  transform=" translate(-458.11, -156.04)" d="M 453.49432 129.53238 L 462.722683 182.540254" stroke-linecap="round" />
</g>
<g transform="matrix(2.35 0 0 2.33 491.66 264.93)" clip-path="url(#CLIPPATH_53)"  >
<clipPath id="CLIPPATH_53" >
	<path transform="matrix(1 0 0 1 21.89 111.96) translate(-480, -270)" d="M 0 0 L 960 0 L 960 540 L 0 540 L 0 0 z" stroke-linecap="round" />
</clipPath>
<path style="stroke: rgb(55,71,79); stroke-width: 8; stroke-dasharray: none; stroke-linecap: butt; stroke-dashoffset: 0; stroke-linejoin: round; stroke-miterlimit: 10; fill: none; fill-rule: evenodd; opacity: 1;" vector-effect="non-scaling-stroke"  transform=" translate(-458.11, -156.04)" d="M 453.49432 129.53238 L 462.722683 182.540254" stroke-linecap="round" />
</g>
<g transform="matrix(2.35 0 0 2.33 491.66 260.26)" clip-path="url(#CLIPPATH_54)"  >
<clipPath id="CLIPPATH_54" >
	<path transform="matrix(1 0 0 1 21.89 113.96) translate(-480, -270)" d="M 0 0 L 960 0 L 960 540 L 0 540 L 0 0 z" stroke-linecap="round" />
</clipPath>
<path style="stroke: none; stroke-width: 1; stroke-dasharray: none; stroke-linecap: square; stroke-dashoffset: 0; stroke-linejoin: miter; stroke-miterlimit: 10; fill: rgb(0,0,0); fill-opacity: 0; fill-rule: evenodd; opacity: 1;" vector-effect="non-scaling-stroke"  transform=" translate(-458.11, -156.04)" d="M 453.49432 129.53238 L 462.722683 182.540254" stroke-linecap="round" />
</g>
<g transform="matrix(2.35 0 0 2.33 491.66 260.26)" clip-path="url(#CLIPPATH_55)"  >
<clipPath id="CLIPPATH_55" >
	<path transform="matrix(1 0 0 1 21.89 113.96) translate(-480, -270)" d="M 0 0 L 960 0 L 960 540 L 0 540 L 0 0 z" stroke-linecap="round" />
</clipPath>
<path style="stroke: rgb(55,71,79); stroke-width: 8; stroke-dasharray: none; stroke-linecap: butt; stroke-dashoffset: 0; stroke-linejoin: round; stroke-miterlimit: 10; fill: none; fill-rule: evenodd; opacity: 1;" vector-effect="non-scaling-stroke"  transform=" translate(-458.11, -156.04)" d="M 453.49432 129.53238 L 462.722683 182.540254" stroke-linecap="round" />
</g>
<g transform="matrix(2.35 0 0 2.33 552.29 503.74)" clip-path="url(#CLIPPATH_56)"  >
<clipPath id="CLIPPATH_56" >
	<path transform="matrix(1 0 0 1 -3.92 9.5) translate(-480, -270)" d="M 0 0 L 960 0 L 960 540 L 0 540 L 0 0 z" stroke-linecap="round" />
</clipPath>
<path style="stroke: none; stroke-width: 1; stroke-dasharray: none; stroke-linecap: square; stroke-dashoffset: 0; stroke-linejoin: miter; stroke-miterlimit: 10; fill: rgb(0,0,0); fill-opacity: 0; fill-rule: evenodd; opacity: 1;" vector-effect="non-scaling-stroke"  transform=" translate(-475.01, -255.96)" d="M 418.19177 265.781 L 418.19177 265.781 C 412.764585 234.435587 433.803678 204.625498 465.183896 199.19833 L 465.183896 199.19833 C 480.253201 196.5921136 495.740628 200.0722466 508.239133 208.873165 C 520.737607 217.674084 529.2233249999999 231.074855 531.829587 246.127468 L 531.829587 246.127468 C 537.256772 277.472896 516.2176489999999 307.282955 484.8374299999999 312.710138 L 484.8374299999999 312.710138 C 453.45724199999995 318.137323 423.6189549999999 297.126428 418.1917699999999 265.78099799999995 z" stroke-linecap="round" />
</g>
<g transform="matrix(2.35 0 0 2.33 552.29 503.74)" clip-path="url(#CLIPPATH_57)"  >
<clipPath id="CLIPPATH_57" >
	<path transform="matrix(1 0 0 1 -3.92 9.5) translate(-480, -270)" d="M 0 0 L 960 0 L 960 540 L 0 540 L 0 0 z" stroke-linecap="round" />
</clipPath>
<path style="stroke: rgb(48,65,72); stroke-width: 16; stroke-dasharray: none; stroke-linecap: butt; stroke-dashoffset: 0; stroke-linejoin: round; stroke-miterlimit: 10; fill: none; fill-rule: evenodd; opacity: 1;" vector-effect="non-scaling-stroke"  transform=" translate(-475.01, -255.96)" d="M 418.19177 265.781 L 418.19177 265.781 C 412.764585 234.435587 433.803678 204.625498 465.183896 199.19833 L 465.183896 199.19833 C 480.253201 196.5921136 495.740628 200.0722466 508.239133 208.873165 C 520.737607 217.674084 529.2233249999999 231.074855 531.829587 246.127468 L 531.829587 246.127468 C 537.256772 277.472896 516.2176489999999 307.282955 484.8374299999999 312.710138 L 484.8374299999999 312.710138 C 453.45724199999995 318.137323 423.6189549999999 297.126428 418.1917699999999 265.78099799999995 z" stroke-linecap="round" />
</g>
<g transform="matrix(2.35 0 0 2.33 531.41 493.16)" clip-path="url(#CLIPPATH_58)"  >
<clipPath id="CLIPPATH_58" >
	<path transform="matrix(1 0 0 1 4.99 14.04) translate(-480, -270)" d="M 0 0 L 960 0 L 960 540 L 0 540 L 0 0 z" stroke-linecap="round" />
</clipPath>
<path style="stroke: none; stroke-width: 1; stroke-dasharray: none; stroke-linecap: square; stroke-dashoffset: 0; stroke-linejoin: miter; stroke-miterlimit: 10; fill: rgb(0,0,0); fill-opacity: 0; fill-rule: evenodd; opacity: 1;" vector-effect="non-scaling-stroke"  transform=" translate(-475.01, -255.96)" d="M 418.19177 265.781 L 418.19177 265.781 C 412.764585 234.435587 433.803678 204.625498 465.183896 199.19833 L 465.183896 199.19833 C 480.253201 196.5921136 495.740628 200.0722466 508.239133 208.873165 C 520.737607 217.674084 529.2233249999999 231.074855 531.829587 246.127468 L 531.829587 246.127468 C 537.256772 277.472896 516.2176489999999 307.282955 484.8374299999999 312.710138 L 484.8374299999999 312.710138 C 453.45724199999995 318.137323 423.6189549999999 297.126428 418.1917699999999 265.78099799999995 z" stroke-linecap="round" />
</g>
<g transform="matrix(2.35 0 0 2.33 548.41 498.16)" clip-path="url(#CLIPPATH_59)"  >
<clipPath id="CLIPPATH_59" >
	<path transform="matrix(1 0 0 1 4.99 14.04) translate(-480, -270)" d="M 0 0 L 960 0 L 960 540 L 0 540 L 0 0 z" stroke-linecap="round" />
</clipPath>
<path style="stroke: rgb(48,65,72); stroke-width: 16; stroke-dasharray: none; stroke-linecap: butt; stroke-dashoffset: 0; stroke-linejoin: round; stroke-miterlimit: 10; fill: none; fill-rule: evenodd; opacity: 1;" vector-effect="non-scaling-stroke"  transform=" translate(-475.01, -255.96)" d="M 418.19177 265.781 L 418.19177 265.781 C 412.764585 234.435587 433.803678 204.625498 465.183896 199.19833 L 465.183896 199.19833 C 480.253201 196.5921136 495.740628 200.0722466 508.239133 208.873165 C 520.737607 217.674084 529.2233249999999 231.074855 531.829587 246.127468 L 531.829587 246.127468 C 537.256772 277.472896 516.2176489999999 307.282955 484.8374299999999 312.710138 L 484.8374299999999 312.710138 C 453.45724199999995 318.137323 423.6189549999999 297.126428 418.1917699999999 265.78099799999995 z" stroke-linecap="round" />
</g>
<g transform="matrix(2.35 0 0 2.33 594.58 745.07)" clip-path="url(#CLIPPATH_60)"  >
<clipPath id="CLIPPATH_60" >
	<path transform="matrix(1 0 0 1 -22.02 -94.08) translate(-480, -270)" d="M 0 0 L 960 0 L 960 540 L 0 540 L 0 0 z" stroke-linecap="round" />
</clipPath>
<path style="stroke: none; stroke-width: 1; stroke-dasharray: none; stroke-linecap: square; stroke-dashoffset: 0; stroke-linejoin: miter; stroke-miterlimit: 10; fill: rgb(0,0,0); fill-opacity: 0; fill-rule: evenodd; opacity: 1;" vector-effect="non-scaling-stroke"  transform=" translate(-493.11, -359.54)" d="M 484.83743 312.71014 L 501.37286 406.37942000000004" stroke-linecap="round" />
</g>
<g transform="matrix(2.35 0 0 2.33 594.58 745.07)" clip-path="url(#CLIPPATH_61)"  >
<clipPath id="CLIPPATH_61" >
	<path transform="matrix(1 0 0 1 -22.02 -94.08) translate(-480, -270)" d="M 0 0 L 960 0 L 960 540 L 0 540 L 0 0 z" stroke-linecap="round" />
</clipPath>
<path style="stroke: rgb(48,65,72); stroke-width: 16; stroke-dasharray: none; stroke-linecap: butt; stroke-dashoffset: 0; stroke-linejoin: round; stroke-miterlimit: 10; fill: none; fill-rule: evenodd; opacity: 1;" vector-effect="non-scaling-stroke"  transform=" translate(-493.11, -359.54)" d="M 484.83743 312.71014 L 501.37286 406.37942000000004" stroke-linecap="round" />
</g>
<g transform="matrix(2.35 0 0 2.33 573.7 734.5)" clip-path="url(#CLIPPATH_62)"  >
<clipPath id="CLIPPATH_62" >
	<path transform="matrix(1 0 0 1 -13.11 -89.54) translate(-480, -270)" d="M 0 0 L 960 0 L 960 540 L 0 540 L 0 0 z" stroke-linecap="round" />
</clipPath>
<path style="stroke: none; stroke-width: 1; stroke-dasharray: none; stroke-linecap: square; stroke-dashoffset: 0; stroke-linejoin: miter; stroke-miterlimit: 10; fill: rgb(0,0,0); fill-opacity: 0; fill-rule: evenodd; opacity: 1;" vector-effect="non-scaling-stroke"  transform=" translate(-493.11, -359.54)" d="M 484.83743 312.71014 L 501.37286 406.37942000000004" stroke-linecap="round" />
</g>
<g transform="matrix(2.35 0 0 2.33 593.7 734.5)" clip-path="url(#CLIPPATH_63)"  >
<clipPath id="CLIPPATH_63" >
	<path transform="matrix(1 0 0 1 -13.11 -89.54) translate(-480, -270)" d="M 0 0 L 960 0 L 960 540 L 0 540 L 0 0 z" stroke-linecap="round" />
</clipPath>
<path style="stroke: rgb(48,65,72); stroke-width: 16; stroke-dasharray: none; stroke-linecap: butt; stroke-dashoffset: 0; stroke-linejoin: round; stroke-miterlimit: 10; fill: none; fill-rule: evenodd; opacity: 1;" vector-effect="non-scaling-stroke"  transform=" translate(-493.11, -359.54)" d="M 484.83743 312.71014 L 501.37286 406.37942000000004" stroke-linecap="round" />
</g>
<g transform="matrix(2.35 0 0 2.33 512.67 493.16)" clip-path="url(#CLIPPATH_64)"  >
<clipPath id="CLIPPATH_64" >
	<path transform="matrix(1 0 0 1 12.99 14.04) translate(-480, -270)" d="M 0 0 L 960 0 L 960 540 L 0 540 L 0 0 z" stroke-linecap="round" />
</clipPath>
<path style="stroke: none; stroke-width: 1; stroke-dasharray: none; stroke-linecap: square; stroke-dashoffset: 0; stroke-linejoin: miter; stroke-miterlimit: 10; fill: rgb(0,0,0); fill-opacity: 0; fill-rule: evenodd; opacity: 1;" vector-effect="non-scaling-stroke"  transform=" translate(-467.01, -255.96)" d="M 410.19177 265.781 L 410.19177 265.781 C 404.764585 234.435587 425.803678 204.625498 457.183896 199.19833 L 457.183896 199.19833 C 472.253201 196.5921136 487.740628 200.0722466 500.239133 208.873165 C 512.737607 217.674084 521.2233249999999 231.074855 523.829587 246.127468 L 523.829587 246.127468 C 529.256772 277.472896 508.21764899999994 307.282955 476.8374299999999 312.710138 L 476.8374299999999 312.710138 C 445.45724199999995 318.137323 415.6189549999999 297.126428 410.1917699999999 265.78099799999995 z" stroke-linecap="round" />
</g>
<g transform="matrix(2.35 0 0 2.33 541.67 498.16)" clip-path="url(#CLIPPATH_65)"  >
<clipPath id="CLIPPATH_65" >
	<path transform="matrix(1 0 0 1 12.99 14.04) translate(-480, -270)" d="M 0 0 L 960 0 L 960 540 L 0 540 L 0 0 z" stroke-linecap="round" />
</clipPath>
<path style="stroke: rgb(135,159,149); stroke-width: 16; stroke-dasharray: none; stroke-linecap: butt; stroke-dashoffset: 0; stroke-linejoin: round; stroke-miterlimit: 10; fill: none; fill-rule: evenodd; opacity: 1;" vector-effect="non-scaling-stroke"  transform=" translate(-467.01, -255.96)" d="M 410.19177 265.781 L 410.19177 265.781 C 404.764585 234.435587 425.803678 204.625498 457.183896 199.19833 L 457.183896 199.19833 C 472.253201 196.5921136 487.740628 200.0722466 500.239133 208.873165 C 512.737607 217.674084 521.2233249999999 231.074855 523.829587 246.127468 L 523.829587 246.127468 C 529.256772 277.472896 508.21764899999994 307.282955 476.8374299999999 312.710138 L 476.8374299999999 312.710138 C 445.45724199999995 318.137323 415.6189549999999 297.126428 410.1917699999999 265.78099799999995 z" stroke-linecap="round" />
</g>
<g transform="matrix(2.35 0 0 2.33 554.95 734.5)" clip-path="url(#CLIPPATH_66)"  >
<clipPath id="CLIPPATH_66" >
	<path transform="matrix(1 0 0 1 -5.11 -89.54) translate(-480, -270)" d="M 0 0 L 960 0 L 960 540 L 0 540 L 0 0 z" stroke-linecap="round" />
</clipPath>
<path style="stroke: none; stroke-width: 1; stroke-dasharray: none; stroke-linecap: square; stroke-dashoffset: 0; stroke-linejoin: miter; stroke-miterlimit: 10; fill: rgb(0,0,0); fill-opacity: 0; fill-rule: evenodd; opacity: 1;" vector-effect="non-scaling-stroke"  transform=" translate(-485.11, -359.54)" d="M 476.83743 312.71014 L 493.37286 406.37942000000004" stroke-linecap="round" />
</g>
<g transform="matrix(2.35 0 0 2.33 581.95 734.5)" clip-path="url(#CLIPPATH_67)"  >
<clipPath id="CLIPPATH_67" >
	<path transform="matrix(1 0 0 1 -5.11 -89.54) translate(-480, -270)" d="M 0 0 L 960 0 L 960 540 L 0 540 L 0 0 z" stroke-linecap="round" />
</clipPath>
<path style="stroke: rgb(135,159,149); stroke-width: 16; stroke-dasharray: none; stroke-linecap: butt; stroke-dashoffset: 0; stroke-linejoin: round; stroke-miterlimit: 10; fill: none; fill-rule: evenodd; opacity: 1;" vector-effect="non-scaling-stroke"  transform=" translate(-485.11, -359.54)" d="M 476.83743 312.71014 L 493.37286 406.37942000000004" stroke-linecap="round" />
</g>
</svg>