<svg xmlns="http://www.w3.org/2000/svg" xmlns:xlink="http://www.w3.org/1999/xlink" viewBox="0,0,256,256" width="48px" height="48px" fill-rule="nonzero"><g fill="#ffffff" fill-rule="nonzero" stroke="none" stroke-width="1" stroke-linecap="butt" stroke-linejoin="miter" stroke-miterlimit="10" stroke-dasharray="" stroke-dashoffset="0" font-family="none" font-weight="none" font-size="none" text-anchor="none" style="mix-blend-mode: normal"><g transform="scale(5.33333,5.33333)"><path d="M37,4c-3.85433,0 -7,3.14567 -7,7c0,0.7236 0.25409,1.37571 0.45898,2.04102l-15.47656,7.45117c-0.23916,0.11514 -0.42274,0.32064 -0.5103,0.57122c-0.08756,0.25058 -0.07191,0.52569 0.0435,0.76472c0.31301,0.64826 0.48438,1.38464 0.48438,2.17188c0,2.77367 -2.22633,5 -5,5c-2.77367,0 -5,-2.22633 -5,-5c0,-2.77367 2.22633,-5 5,-5c0.58202,0 1.13777,0.09992 1.6543,0.28125c0.52154,0.18284 1.09255,-0.09174 1.27539,-0.61328c0.18284,-0.52154 -0.09174,-1.09255 -0.61328,-1.27539c-0.72547,-0.25467 -1.50642,-0.39258 -2.31641,-0.39258c-3.85433,0 -7,3.14567 -7,7c0,3.85433 3.14567,7 7,7c3.85433,0 7,-3.14567 7,-7c0,-0.72338 -0.25414,-1.3741 -0.45898,-2.03906l15.47656,-7.45117c0.23916,-0.11514 0.42274,-0.32064 0.5103,-0.57122c0.08756,-0.25058 0.07191,-0.52569 -0.0435,-0.76472c-0.31329,-0.64967 -0.48437,-1.38659 -0.48437,-2.17383c0,-2.77367 2.22633,-5 5,-5c2.77367,0 5,2.22633 5,5c0,2.77367 -2.22633,5 -5,5c-0.5756,0 -1.12501,-0.09621 -1.63672,-0.27344c-0.34133,-0.13277 -0.72793,-0.06834 -1.00776,0.16794c-0.27983,0.23628 -0.40813,0.60662 -0.33443,0.96537c0.07369,0.35875 0.33758,0.64853 0.6879,0.75537c0.71829,0.24877 1.49061,0.38477 2.29102,0.38477c3.85433,0 7,-3.14567 7,-7c0,-3.85433 -3.14567,-7 -7,-7zM18.98633,27.3457c-0.46156,0.01791 -0.85081,0.34957 -0.94176,0.80244c-0.09094,0.45287 0.14008,0.9091 0.55894,1.10381l12.54688,6.04102c0.4973,0.23902 1.09422,0.03014 1.33398,-0.4668c0.80541,-1.67066 2.52158,-2.82617 4.51563,-2.82617c2.77367,0 5,2.22633 5,5c0,2.77367 -2.22633,5 -5,5c-2.17499,0 -4.01113,-1.37981 -4.70508,-3.30273c-0.11294,-0.34677 -0.40568,-0.60457 -0.76394,-0.67275c-0.35826,-0.06819 -0.72524,0.06405 -0.95767,0.34508c-0.23243,0.28103 -0.29345,0.66631 -0.15925,1.00541c0.97405,2.69908 3.56293,4.625 6.58594,4.625c3.85433,0 7,-3.14567 7,-7c0,-3.85433 -3.14567,-7 -7,-7c-2.40685,0 -4.49358,1.25528 -5.75586,3.11719l-11.77344,-5.66797c-0.15022,-0.07457 -0.31679,-0.11017 -0.48437,-0.10352z"></path></g></g></svg>