<svg version="1.1" viewBox="0.0 0.0 960.0 540.0" fill="none" stroke="none" stroke-linecap="square" stroke-miterlimit="10" xmlns:xlink="http://www.w3.org/1999/xlink" xmlns="http://www.w3.org/2000/svg"><clipPath id="g2248f560cdb_0_2.0"><path d="m0 0l960.0 0l0 540.0l-960.0 0l0 -540.0z" clip-rule="nonzero"/></clipPath><g clip-path="url(#g2248f560cdb_0_2.0)"><path fill="#000000" fill-opacity="0.0" d="m0 0l960.0 0l0 540.0l-960.0 0z" fill-rule="evenodd"/><g filter="url(#shadowFilter-g2248f560cdb_0_2.1)"><use xlink:href="#g2248f560cdb_0_2.1" transform="matrix(1.0 0.0 0.0 1.0 0.0 2.0)"/></g><defs><filter id="shadowFilter-g2248f560cdb_0_2.1" filterUnits="userSpaceOnUse"><feGaussianBlur in="SourceAlpha" stdDeviation="2.0" result="blur"/><feComponentTransfer in="blur" color-interpolation-filters="sRGB"><feFuncR type="linear" slope="0" intercept="0.0"/><feFuncG type="linear" slope="0" intercept="0.0"/><feFuncB type="linear" slope="0" intercept="0.0"/><feFuncA type="linear" slope="0.5" intercept="0"/></feComponentTransfer></filter></defs><g id="g2248f560cdb_0_2.1"><path fill="#000000" fill-opacity="0.0" d="m326.52756 213.11285l73.88977 27.905518" fill-rule="evenodd"/><path stroke="#37474f" stroke-width="8.0" stroke-linejoin="round" stroke-linecap="butt" d="m326.52756 213.11285l73.88977 27.905518" fill-rule="evenodd"/></g><g filter="url(#shadowFilter-g2248f560cdb_0_2.2)"><use xlink:href="#g2248f560cdb_0_2.2" transform="matrix(1.0 0.0 0.0 1.0 0.0 2.0)"/></g><defs><filter id="shadowFilter-g2248f560cdb_0_2.2" filterUnits="userSpaceOnUse"><feGaussianBlur in="SourceAlpha" stdDeviation="2.0" result="blur"/><feComponentTransfer in="blur" color-interpolation-filters="sRGB"><feFuncR type="linear" slope="0" intercept="0.0"/><feFuncG type="linear" slope="0" intercept="0.0"/><feFuncB type="linear" slope="0" intercept="0.0"/><feFuncA type="linear" slope="0.5" intercept="0"/></feComponentTransfer></filter></defs><g id="g2248f560cdb_0_2.2"><path fill="#000000" fill-opacity="0.0" d="m401.06653 96.4473l-86.078735 65.48031" fill-rule="evenodd"/><path stroke="#37474f" stroke-width="8.0" stroke-linejoin="round" stroke-linecap="butt" d="m401.06653 96.4473l-86.078735 65.48031" fill-rule="evenodd"/></g><g filter="url(#shadowFilter-g2248f560cdb_0_2.3)"><use xlink:href="#g2248f560cdb_0_2.3" transform="matrix(1.0 0.0 0.0 1.0 0.0 2.0)"/></g><defs><filter id="shadowFilter-g2248f560cdb_0_2.3" filterUnits="userSpaceOnUse"><feGaussianBlur in="SourceAlpha" stdDeviation="2.0" result="blur"/><feComponentTransfer in="blur" color-interpolation-filters="sRGB"><feFuncR type="linear" slope="0" intercept="0.0"/><feFuncG type="linear" slope="0" intercept="0.0"/><feFuncB type="linear" slope="0" intercept="0.0"/><feFuncA type="linear" slope="0.5" intercept="0"/></feComponentTransfer></filter></defs><g id="g2248f560cdb_0_2.3"><path fill="#37474f" d="m636.5833 311.21906l0 0c-3.0963135 -17.907959 8.917969 -34.93524 26.834595 -38.031494l0 0c8.603882 -1.486908 17.446045 0.5033264 24.581299 5.5328674c7.135254 5.0295105 11.979065 12.68631 13.466003 21.28601l0 0c3.0962524 17.907959 -8.91803 34.93524 -26.834656 38.031494l0 0c-17.916687 3.096283 -34.95099 -8.91095 -38.04724 -26.818878z" fill-rule="evenodd"/></g><g filter="url(#shadowFilter-g2248f560cdb_0_2.4)"><use xlink:href="#g2248f560cdb_0_2.4" transform="matrix(1.0 0.0 0.0 1.0 0.0 2.0)"/></g><defs><filter id="shadowFilter-g2248f560cdb_0_2.4" filterUnits="userSpaceOnUse"><feGaussianBlur in="SourceAlpha" stdDeviation="2.0" result="blur"/><feComponentTransfer in="blur" color-interpolation-filters="sRGB"><feFuncR type="linear" slope="0" intercept="0.0"/><feFuncG type="linear" slope="0" intercept="0.0"/><feFuncB type="linear" slope="0" intercept="0.0"/><feFuncA type="linear" slope="0.5" intercept="0"/></feComponentTransfer></filter></defs><g id="g2248f560cdb_0_2.4"><path fill="#37474f" d="m476.68848 457.00726l0 0c-3.0962524 -17.907928 8.917999 -34.93521 26.834656 -38.031494l0 0c8.603882 -1.4868774 17.445984 0.50335693 24.581238 5.5328674c7.135254 5.0295105 11.979126 12.68634 13.466003 21.286041l0 0c3.0962524 17.907928 -8.91803 34.93521 -26.834656 38.031494l0 0c-17.916626 3.0962524 -34.95096 -8.91098 -38.04724 -26.818909z" fill-rule="evenodd"/></g><g filter="url(#shadowFilter-g2248f560cdb_0_2.5)"><use xlink:href="#g2248f560cdb_0_2.5" transform="matrix(1.0 0.0 0.0 1.0 0.0 2.0)"/></g><defs><filter id="shadowFilter-g2248f560cdb_0_2.5" filterUnits="userSpaceOnUse"><feGaussianBlur in="SourceAlpha" stdDeviation="2.0" result="blur"/><feComponentTransfer in="blur" color-interpolation-filters="sRGB"><feFuncR type="linear" slope="0" intercept="0.0"/><feFuncG type="linear" slope="0" intercept="0.0"/><feFuncB type="linear" slope="0" intercept="0.0"/><feFuncA type="linear" slope="0.5" intercept="0"/></feComponentTransfer></filter></defs><g id="g2248f560cdb_0_2.5"><path fill="#000000" fill-opacity="0.0" d="m344.1236 402.2222l107.811005 39.62207" fill-rule="evenodd"/><path stroke="#37474f" stroke-width="8.0" stroke-linejoin="round" stroke-linecap="butt" d="m344.1236 402.2222l107.811005 39.62207" fill-rule="evenodd"/></g><g filter="url(#shadowFilter-g2248f560cdb_0_2.6)"><use xlink:href="#g2248f560cdb_0_2.6" transform="matrix(1.0 0.0 0.0 1.0 0.0 2.0)"/></g><defs><filter id="shadowFilter-g2248f560cdb_0_2.6" filterUnits="userSpaceOnUse"><feGaussianBlur in="SourceAlpha" stdDeviation="2.0" result="blur"/><feComponentTransfer in="blur" color-interpolation-filters="sRGB"><feFuncR type="linear" slope="0" intercept="0.0"/><feFuncG type="linear" slope="0" intercept="0.0"/><feFuncB type="linear" slope="0" intercept="0.0"/><feFuncA type="linear" slope="0.5" intercept="0"/></feComponentTransfer></filter></defs><g id="g2248f560cdb_0_2.6"><path fill="#37474f" d="m287.31888 371.59598l0 0c-3.0962524 -17.907928 8.91803 -34.93521 26.834656 -38.031494l0 0c8.603882 -1.4868774 17.446014 0.50335693 24.581268 5.5328674c7.1352234 5.029541 11.979095 12.68634 13.465973 21.286041l0 0c3.096283 17.907928 -8.917999 34.93521 -26.834656 38.031494l0 0c-17.916626 3.096283 -34.95096 -8.91095 -38.04724 -26.818909z" fill-rule="evenodd"/></g><g filter="url(#shadowFilter-g2248f560cdb_0_2.7)"><use xlink:href="#g2248f560cdb_0_2.7" transform="matrix(1.0 0.0 0.0 1.0 0.0 2.0)"/></g><defs><filter id="shadowFilter-g2248f560cdb_0_2.7" filterUnits="userSpaceOnUse"><feGaussianBlur in="SourceAlpha" stdDeviation="2.0" result="blur"/><feComponentTransfer in="blur" color-interpolation-filters="sRGB"><feFuncR type="linear" slope="0" intercept="0.0"/><feFuncG type="linear" slope="0" intercept="0.0"/><feFuncB type="linear" slope="0" intercept="0.0"/><feFuncA type="linear" slope="0.5" intercept="0"/></feComponentTransfer></filter></defs><g id="g2248f560cdb_0_2.7"><path fill="#000000" fill-opacity="0.0" d="m609.1351 97.36427l-117.38583 -16.598427" fill-rule="evenodd"/><path stroke="#37474f" stroke-width="8.0" stroke-linejoin="round" stroke-linecap="butt" d="m609.1351 97.36427l-117.38583 -16.598427" fill-rule="evenodd"/></g><g filter="url(#shadowFilter-g2248f560cdb_0_2.8)"><use xlink:href="#g2248f560cdb_0_2.8" transform="matrix(1.0 0.0 0.0 1.0 0.0 2.000000000000019)"/></g><defs><filter id="shadowFilter-g2248f560cdb_0_2.8" filterUnits="userSpaceOnUse"><feGaussianBlur in="SourceAlpha" stdDeviation="2.0" result="blur"/><feComponentTransfer in="blur" color-interpolation-filters="sRGB"><feFuncR type="linear" slope="0" intercept="0.0"/><feFuncG type="linear" slope="0" intercept="0.0"/><feFuncB type="linear" slope="0" intercept="0.0"/><feFuncA type="linear" slope="0.5" intercept="0"/></feComponentTransfer></filter></defs><g id="g2248f560cdb_0_2.8"><path fill="#37474f" d="m607.79224 144.67062l0 0c-3.0962524 -17.907944 8.91803 -34.93522 26.834656 -38.031494l0 0c8.603882 -1.4868851 17.446045 0.5033493 24.581238 5.5328674c7.135254 5.029518 11.979126 12.686333 13.466003 21.286026l0 0c3.0962524 17.907944 -8.917969 34.935226 -26.834656 38.031494l0 0c-17.916626 3.096283 -34.950928 -8.91095 -38.04724 -26.818893z" fill-rule="evenodd"/></g><g filter="url(#shadowFilter-g2248f560cdb_0_2.9)"><use xlink:href="#g2248f560cdb_0_2.9" transform="matrix(1.0 0.0 0.0 1.0 0.0 2.0)"/></g><defs><filter id="shadowFilter-g2248f560cdb_0_2.9" filterUnits="userSpaceOnUse"><feGaussianBlur in="SourceAlpha" stdDeviation="2.0" result="blur"/><feComponentTransfer in="blur" color-interpolation-filters="sRGB"><feFuncR type="linear" slope="0" intercept="0.0"/><feFuncG type="linear" slope="0" intercept="0.0"/><feFuncB type="linear" slope="0" intercept="0.0"/><feFuncA type="linear" slope="0.5" intercept="0"/></feComponentTransfer></filter></defs><g id="g2248f560cdb_0_2.9"><path fill="#37474f" d="m258.53427 205.08464l0 0c-3.096283 -17.907944 8.917999 -34.935226 26.834625 -38.031494l0 0c8.603882 -1.4868927 17.446014 0.5033417 24.581268 5.5328674c7.135254 5.0295105 11.979095 12.686325 13.465973 21.286026l0 0c3.096283 17.907944 -8.917999 34.935226 -26.834625 38.031494l0 0c-17.916656 3.0962677 -34.95099 -8.91095 -38.04724 -26.818893z" fill-rule="evenodd"/></g><g filter="url(#shadowFilter-g2248f560cdb_0_2.10)"><use xlink:href="#g2248f560cdb_0_2.10" transform="matrix(1.0 0.0 0.0 1.0 0.0 2.0)"/></g><defs><filter id="shadowFilter-g2248f560cdb_0_2.10" filterUnits="userSpaceOnUse"><feGaussianBlur in="SourceAlpha" stdDeviation="2.0" result="blur"/><feComponentTransfer in="blur" color-interpolation-filters="sRGB"><feFuncR type="linear" slope="0" intercept="0.0"/><feFuncG type="linear" slope="0" intercept="0.0"/><feFuncB type="linear" slope="0" intercept="0.0"/><feFuncA type="linear" slope="0.5" intercept="0"/></feComponentTransfer></filter></defs><g id="g2248f560cdb_0_2.10"><path fill="#37474f" d="m413.97153 94.206566l0 0c-3.0962524 -17.907944 8.91803 -34.935223 26.834656 -38.031494l0 0c8.603882 -1.4868851 17.446014 0.5033493 24.581268 5.5328674c7.1352234 5.029518 11.979095 12.686333 13.465973 21.286026l0 0c3.096283 17.907944 -8.917999 34.935226 -26.834656 38.0315l0 0c-17.916626 3.0962677 -34.95096 -8.910957 -38.04724 -26.818901z" fill-rule="evenodd"/></g><g filter="url(#shadowFilter-g2248f560cdb_0_2.11)"><use xlink:href="#g2248f560cdb_0_2.11" transform="matrix(1.0 0.0 0.0 1.0 0.0 2.0)"/></g><defs><filter id="shadowFilter-g2248f560cdb_0_2.11" filterUnits="userSpaceOnUse"><feGaussianBlur in="SourceAlpha" stdDeviation="2.0" result="blur"/><feComponentTransfer in="blur" color-interpolation-filters="sRGB"><feFuncR type="linear" slope="0" intercept="0.0"/><feFuncG type="linear" slope="0" intercept="0.0"/><feFuncB type="linear" slope="0" intercept="0.0"/><feFuncA type="linear" slope="0.5" intercept="0"/></feComponentTransfer></filter></defs><g id="g2248f560cdb_0_2.11"><path fill="#000000" fill-opacity="0.0" d="m553.3411 436.91815l107.275635 -89.41733" fill-rule="evenodd"/><path stroke="#37474f" stroke-width="8.0" stroke-linejoin="round" stroke-linecap="butt" d="m553.3411 436.91815l107.275635 -89.41733" fill-rule="evenodd"/></g><g filter="url(#shadowFilter-g2248f560cdb_0_2.12)"><use xlink:href="#g2248f560cdb_0_2.12" transform="matrix(1.0 0.0 0.0 1.0 0.0 2.0)"/></g><defs><filter id="shadowFilter-g2248f560cdb_0_2.12" filterUnits="userSpaceOnUse"><feGaussianBlur in="SourceAlpha" stdDeviation="2.0" result="blur"/><feComponentTransfer in="blur" color-interpolation-filters="sRGB"><feFuncR type="linear" slope="0" intercept="0.0"/><feFuncG type="linear" slope="0" intercept="0.0"/><feFuncB type="linear" slope="0" intercept="0.0"/><feFuncA type="linear" slope="0.5" intercept="0"/></feComponentTransfer></filter></defs><g id="g2248f560cdb_0_2.12"><path fill="#000000" fill-opacity="0.0" d="m599.80585 158.75087l-62.362183 47.55905" fill-rule="evenodd"/><path stroke="#37474f" stroke-width="8.0" stroke-linejoin="round" stroke-linecap="butt" d="m599.80585 158.75087l-62.362183 47.55905" fill-rule="evenodd"/></g><g filter="url(#shadowFilter-g2248f560cdb_0_2.13)"><use xlink:href="#g2248f560cdb_0_2.13" transform="matrix(1.0 0.0 0.0 1.0 0.0 2.0)"/></g><defs><filter id="shadowFilter-g2248f560cdb_0_2.13" filterUnits="userSpaceOnUse"><feGaussianBlur in="SourceAlpha" stdDeviation="2.0" result="blur"/><feComponentTransfer in="blur" color-interpolation-filters="sRGB"><feFuncR type="linear" slope="0" intercept="0.0"/><feFuncG type="linear" slope="0" intercept="0.0"/><feFuncB type="linear" slope="0" intercept="0.0"/><feFuncA type="linear" slope="0.5" intercept="0"/></feComponentTransfer></filter></defs><g id="g2248f560cdb_0_2.13"><path fill="#000000" fill-opacity="0.0" d="m415.18896 303.96326l-59.590546 45.88977" fill-rule="evenodd"/><path stroke="#37474f" stroke-width="8.0" stroke-linejoin="round" stroke-linecap="butt" d="m415.18896 303.96326l-59.590546 45.88977" fill-rule="evenodd"/></g><g filter="url(#shadowFilter-g2248f560cdb_0_2.14)"><use xlink:href="#g2248f560cdb_0_2.14" transform="matrix(1.0 0.0 0.0 1.0 0.0 2.0)"/></g><defs><filter id="shadowFilter-g2248f560cdb_0_2.14" filterUnits="userSpaceOnUse"><feGaussianBlur in="SourceAlpha" stdDeviation="2.0" result="blur"/><feComponentTransfer in="blur" color-interpolation-filters="sRGB"><feFuncR type="linear" slope="0" intercept="0.0"/><feFuncG type="linear" slope="0" intercept="0.0"/><feFuncB type="linear" slope="0" intercept="0.0"/><feFuncA type="linear" slope="0.5" intercept="0"/></feComponentTransfer></filter></defs><g id="g2248f560cdb_0_2.14"><path fill="#000000" fill-opacity="0.0" d="m551.03674 277.6404l77.85828 27.779541" fill-rule="evenodd"/><path stroke="#37474f" stroke-width="8.0" stroke-linejoin="round" stroke-linecap="butt" d="m551.03674 277.6404l77.85828 27.779541" fill-rule="evenodd"/></g><g filter="url(#shadowFilter-g2248f560cdb_0_2.15)"><use xlink:href="#g2248f560cdb_0_2.15" transform="matrix(1.0 0.0 0.0 1.0 0.0 2.0)"/></g><defs><filter id="shadowFilter-g2248f560cdb_0_2.15" filterUnits="userSpaceOnUse"><feGaussianBlur in="SourceAlpha" stdDeviation="2.0" result="blur"/><feComponentTransfer in="blur" color-interpolation-filters="sRGB"><feFuncR type="linear" slope="0" intercept="0.0"/><feFuncG type="linear" slope="0" intercept="0.0"/><feFuncB type="linear" slope="0" intercept="0.0"/><feFuncA type="linear" slope="0.5" intercept="0"/></feComponentTransfer></filter></defs><g id="g2248f560cdb_0_2.15"><path fill="#000000" fill-opacity="0.0" d="m453.49432 129.53238l9.228363 53.007874" fill-rule="evenodd"/><path stroke="#37474f" stroke-width="8.0" stroke-linejoin="round" stroke-linecap="butt" d="m453.49432 129.53238l9.228363 53.007874" fill-rule="evenodd"/></g><g filter="url(#shadowFilter-g2248f560cdb_0_2.16)"><use xlink:href="#g2248f560cdb_0_2.16" transform="matrix(1.0 0.0 0.0 1.0 8.910065091863531 4.539904986876648)"/></g><defs><filter id="shadowFilter-g2248f560cdb_0_2.16" filterUnits="userSpaceOnUse"><feGaussianBlur in="SourceAlpha" stdDeviation="2.0" result="blur"/><feComponentTransfer in="blur" color-interpolation-filters="sRGB"><feFuncR type="linear" slope="0" intercept="0.4"/><feFuncG type="linear" slope="0" intercept="0.4"/><feFuncB type="linear" slope="0" intercept="0.4"/><feFuncA type="linear" slope="1.0" intercept="0"/></feComponentTransfer></filter></defs><g id="g2248f560cdb_0_2.16"><path fill="#000000" fill-opacity="0.0" d="m418.19177 265.781l0 0c-5.427185 -31.345413 15.611908 -61.155502 46.992126 -66.58267l0 0c15.069305 -2.6062164 30.556732 0.8739166 43.055237 9.674835c12.498474 8.800919 20.984192 22.20169 23.590454 37.254303l0 0c5.427185 31.345428 -15.611938 61.155487 -46.992157 66.58267l0 0c-31.380188 5.427185 -61.218475 -15.58371 -66.64566 -46.92914z" fill-rule="evenodd"/><path stroke="#304148" stroke-width="16.0" stroke-linejoin="round" stroke-linecap="butt" d="m418.19177 265.781l0 0c-5.427185 -31.345413 15.611908 -61.155502 46.992126 -66.58267l0 0c15.069305 -2.6062164 30.556732 0.8739166 43.055237 9.674835c12.498474 8.800919 20.984192 22.20169 23.590454 37.254303l0 0c5.427185 31.345428 -15.611938 61.155487 -46.992157 66.58267l0 0c-31.380188 5.427185 -61.218475 -15.58371 -66.64566 -46.92914z" fill-rule="evenodd"/></g><g filter="url(#shadowFilter-g2248f560cdb_0_2.17)"><use xlink:href="#g2248f560cdb_0_2.17" transform="matrix(1.0 0.0 0.0 1.0 8.910065091863531 4.53990498687661)"/></g><defs><filter id="shadowFilter-g2248f560cdb_0_2.17" filterUnits="userSpaceOnUse"><feGaussianBlur in="SourceAlpha" stdDeviation="2.0" result="blur"/><feComponentTransfer in="blur" color-interpolation-filters="sRGB"><feFuncR type="linear" slope="0" intercept="0.4"/><feFuncG type="linear" slope="0" intercept="0.4"/><feFuncB type="linear" slope="0" intercept="0.4"/><feFuncA type="linear" slope="1.0" intercept="0"/></feComponentTransfer></filter></defs><g id="g2248f560cdb_0_2.17"><path fill="#000000" fill-opacity="0.0" d="m484.83743 312.71014l16.53543 93.66928" fill-rule="evenodd"/><path stroke="#304148" stroke-width="16.0" stroke-linejoin="round" stroke-linecap="butt" d="m484.83743 312.71014l16.53543 93.66928" fill-rule="evenodd"/></g><path fill="#000000" fill-opacity="0.0" d="m410.19177 265.781l0 0c-5.427185 -31.345413 15.611908 -61.155502 46.992126 -66.58267l0 0c15.069305 -2.6062164 30.556732 0.8739166 43.055237 9.674835c12.498474 8.800919 20.984192 22.20169 23.590454 37.254303l0 0c5.427185 31.345428 -15.611938 61.155487 -46.992157 66.58267l0 0c-31.380188 5.427185 -61.218475 -15.58371 -66.64566 -46.92914z" fill-rule="evenodd"/><path stroke="#879f95" stroke-width="16.0" stroke-linejoin="round" stroke-linecap="butt" d="m410.19177 265.781l0 0c-5.427185 -31.345413 15.611908 -61.155502 46.992126 -66.58267l0 0c15.069305 -2.6062164 30.556732 0.8739166 43.055237 9.674835c12.498474 8.800919 20.984192 22.20169 23.590454 37.254303l0 0c5.427185 31.345428 -15.611938 61.155487 -46.992157 66.58267l0 0c-31.380188 5.427185 -61.218475 -15.58371 -66.64566 -46.92914z" fill-rule="evenodd"/><path fill="#000000" fill-opacity="0.0" d="m476.83743 312.71014l16.53543 93.66928" fill-rule="evenodd"/><path stroke="#879f95" stroke-width="16.0" stroke-linejoin="round" stroke-linecap="butt" d="m476.83743 312.71014l16.53543 93.66928" fill-rule="evenodd"/></g></svg>